<?xml version="1.0" standalone="no"?>
<svg xmlns:xlink="http://www.w3.org/1999/xlink" id="wave" style="transform:rotate(180deg); transition: 0.3s" viewBox="0 0 1440 180" version="1.1" xmlns="http://www.w3.org/2000/svg"><defs><linearGradient id="sw-gradient-0" x1="0" x2="0" y1="1" y2="0"><stop stop-color="rgba(245, 249, 255, 1)" offset="0%"/><stop stop-color="rgba(245, 249, 255, 1)" offset="100%"/></linearGradient></defs><path style="transform:translate(0, 0px); opacity:1" fill="url(#sw-gradient-0)" d="M0,162L60,141C120,120,240,78,360,51C480,24,600,12,720,27C840,42,960,84,1080,102C1200,120,1320,114,1440,117C1560,120,1680,132,1800,138C1920,144,2040,144,2160,135C2280,126,2400,108,2520,111C2640,114,2760,138,2880,141C3000,144,3120,126,3240,126C3360,126,3480,144,3600,147C3720,150,3840,138,3960,120C4080,102,4200,78,4320,57C4440,36,4560,18,4680,27C4800,36,4920,72,5040,96C5160,120,5280,132,5400,129C5520,126,5640,108,5760,102C5880,96,6000,102,6120,93C6240,84,6360,60,6480,66C6600,72,6720,108,6840,105C6960,102,7080,60,7200,63C7320,66,7440,114,7560,114C7680,114,7800,66,7920,66C8040,66,8160,114,8280,114C8400,114,8520,66,8580,42L8640,18L8640,180L8580,180C8520,180,8400,180,8280,180C8160,180,8040,180,7920,180C7800,180,7680,180,7560,180C7440,180,7320,180,7200,180C7080,180,6960,180,6840,180C6720,180,6600,180,6480,180C6360,180,6240,180,6120,180C6000,180,5880,180,5760,180C5640,180,5520,180,5400,180C5280,180,5160,180,5040,180C4920,180,4800,180,4680,180C4560,180,4440,180,4320,180C4200,180,4080,180,3960,180C3840,180,3720,180,3600,180C3480,180,3360,180,3240,180C3120,180,3000,180,2880,180C2760,180,2640,180,2520,180C2400,180,2280,180,2160,180C2040,180,1920,180,1800,180C1680,180,1560,180,1440,180C1320,180,1200,180,1080,180C960,180,840,180,720,180C600,180,480,180,360,180C240,180,120,180,60,180L0,180Z"/></svg>