<?xml version="1.0" standalone="no"?>
<svg xmlns:xlink="http://www.w3.org/1999/xlink" id="wave" style="transform:rotate(0deg); transition: 0.3s" viewBox="0 0 1440 180" version="1.1" xmlns="http://www.w3.org/2000/svg"><defs><linearGradient id="sw-gradient-0" x1="0" x2="0" y1="1" y2="0"><stop stop-color="rgba(245, 249, 255, 1)" offset="0%"/><stop stop-color="rgba(245, 249, 255, 1)" offset="100%"/></linearGradient></defs><path style="transform:translate(0, 0px); opacity:1" fill="url(#sw-gradient-0)" d="M0,0L48,12C96,24,192,48,288,48C384,48,480,24,576,15C672,6,768,12,864,39C960,66,1056,114,1152,129C1248,144,1344,126,1440,111C1536,96,1632,84,1728,75C1824,66,1920,60,2016,66C2112,72,2208,90,2304,96C2400,102,2496,96,2592,99C2688,102,2784,114,2880,126C2976,138,3072,150,3168,156C3264,162,3360,162,3456,150C3552,138,3648,114,3744,108C3840,102,3936,114,4032,108C4128,102,4224,78,4320,72C4416,66,4512,78,4608,72C4704,66,4800,42,4896,51C4992,60,5088,102,5184,108C5280,114,5376,84,5472,63C5568,42,5664,30,5760,30C5856,30,5952,42,6048,48C6144,54,6240,54,6336,54C6432,54,6528,54,6624,60C6720,66,6816,78,6864,84L6912,90L6912,180L6864,180C6816,180,6720,180,6624,180C6528,180,6432,180,6336,180C6240,180,6144,180,6048,180C5952,180,5856,180,5760,180C5664,180,5568,180,5472,180C5376,180,5280,180,5184,180C5088,180,4992,180,4896,180C4800,180,4704,180,4608,180C4512,180,4416,180,4320,180C4224,180,4128,180,4032,180C3936,180,3840,180,3744,180C3648,180,3552,180,3456,180C3360,180,3264,180,3168,180C3072,180,2976,180,2880,180C2784,180,2688,180,2592,180C2496,180,2400,180,2304,180C2208,180,2112,180,2016,180C1920,180,1824,180,1728,180C1632,180,1536,180,1440,180C1344,180,1248,180,1152,180C1056,180,960,180,864,180C768,180,672,180,576,180C480,180,384,180,288,180C192,180,96,180,48,180L0,180Z"/></svg>